<?xml version="1.0" encoding="UTF-8"?>
<svg id="Layer_1" data-name="Layer 1" xmlns="http://www.w3.org/2000/svg" width="24" height="24" viewBox="0 0 24 24">
  <defs>
    <style>
      .cls-1 {
        stroke-width: 0px;
      }
    </style>
  </defs>
  <g id="_3" data-name="3">
    <path class="cls-1" d="m17.25,0h-9c-1.59,0-3,1.46-3,3l-.87.02c-1.59,0-2.88,1.44-2.88,2.98v15c0,1.54,1.41,3,3,3h11.25c1.59,0,3-1.46,3-3h.75c1.59,0,3-1.46,3-3V6.02L17.25,0Zm-1.5,22.5H4.5c-.79,0-1.5-.74-1.5-1.5V6c0-.76.64-1.48,1.43-1.48l.82-.02v13.5c0,1.54,1.41,3,3,3h9c0,.76-.71,1.5-1.5,1.5Zm5.25-4.5c0,.76-.71,1.5-1.5,1.5h-11.25c-.79,0-1.5-.74-1.5-1.5V3c0-.76.71-1.5,1.5-1.5h7.5c-.01,1.73,0,3.02,0,3.02,0,1.56,1.4,2.98,3,2.98h2.25v10.5Zm-2.25-12c-.8,0-1.5-1.45-1.5-2.23V1.52h0s3.75,4.48,3.75,4.48h-2.25Zm-1.5,4.51h-6.75c-.41,0-.75.34-.75.75s.34.75.75.75h6.75c.41,0,.75-.34.75-.75s-.34-.75-.75-.75Zm0,3.75h-6.75c-.41,0-.75.34-.75.75s.34.75.75.75h6.75c.41,0,.75-.34.75-.75s-.34-.75-.75-.75Z"/>
  </g>
</svg>