<?xml version="1.0" encoding="UTF-8"?>
<svg id="Layer_1" data-name="Layer 1" xmlns="http://www.w3.org/2000/svg" width="24" height="24" viewBox="0 0 24 24">
  <defs>
    <style>
      .cls-1 {
        stroke-width: 0px;
      }
    </style>
  </defs>
  <path class="cls-1" d="m8.08,23.99v-15.71c0-.14,0-.26.2-.26,1.51,0,3.03,0,4.55,0,.04,0,.08,0,.14.02v1.98s.03.01.05.02c.19-.25.37-.5.57-.75.58-.71,1.31-1.24,2.17-1.55.47-.17.98-.28,1.47-.3.68-.03,1.37-.02,2.03.1,1.09.19,2.06.67,2.86,1.47.76.75,1.26,1.65,1.53,2.66.14.54.23,1.09.32,1.64.06.38.09.77.09,1.15,0,3.09,0,6.19,0,9.28,0,.08,0,.15,0,.25h-.24c-1.46,0-2.92,0-4.38,0-.24,0-.29-.08-.29-.3,0-2.85.01-5.7,0-8.54,0-.5-.05-1.02-.18-1.5-.23-.84-.77-1.45-1.61-1.76-.71-.26-1.44-.31-2.17-.12-.81.2-1.37.74-1.78,1.45-.32.55-.39,1.15-.39,1.76-.02,2.89,0,5.77,0,8.66v.34c-1.64,0-3.26,0-4.9,0Z"/>
  <path class="cls-1" d="m5.02,16.08c0,2.54,0,5.07,0,7.61,0,.23-.05.31-.3.31-1.45-.01-2.9-.01-4.36,0-.24,0-.29-.08-.29-.3,0-5.1,0-10.2,0-15.3,0-.2.06-.28.27-.28,1.47,0,2.93,0,4.4,0,.23,0,.27.09.27.29,0,2.56,0,5.11,0,7.66Z"/>
  <path class="cls-1" d="m2.49,0c1.57-.04,2.5,1.1,2.51,2.49,0,1.43-.99,2.49-2.57,2.49C.98,4.98-.06,3.94-.05,2.46-.05,1.07.96-.05,2.49,0Z"/>
</svg>